<mxfile host="app.diagrams.net" agent="Mozilla/5.0 (Windows NT 10.0; Win64; x64; rv:139.0) Gecko/20100101 Firefox/139.0" version="27.1.4">
  <diagram name="Page-1" id="3d1KqecdPM0TpSxcWpiK">
    <mxGraphModel dx="3120" dy="3320" grid="1" gridSize="10" guides="1" tooltips="1" connect="1" arrows="1" fold="1" page="1" pageScale="1" pageWidth="850" pageHeight="1100" background="none" math="0" shadow="0">
      <root>
        <mxCell id="0" />
        <mxCell id="1" parent="0" />
        <mxCell id="1ledMZv2JU0vycFWsOgZ-15" value="NullPointer Collaboration Portal" style="rounded=0;whiteSpace=wrap;html=1;fillColor=none;align=center;verticalAlign=top;" parent="1" vertex="1">
          <mxGeometry x="-190" y="-460" width="400" height="440" as="geometry" />
        </mxCell>
        <mxCell id="suKqKbUXab4gZS66yxd8-1" value="&lt;div align=&quot;left&quot;&gt;&lt;font&gt;Use Case: Projektausschreibung einstellen&lt;/font&gt;&lt;/div&gt;&lt;div align=&quot;left&quot;&gt;&lt;font&gt;&lt;br&gt;&lt;/font&gt;&lt;/div&gt;&lt;div align=&quot;left&quot;&gt;&lt;font&gt;System: NullPointer Collaboration Portal&lt;br&gt;&lt;/font&gt;&lt;/div&gt;&lt;div align=&quot;left&quot;&gt;&lt;font&gt;&lt;br&gt;&lt;/font&gt;&lt;/div&gt;&lt;div align=&quot;left&quot;&gt;&lt;font&gt;Akteure: Unternehmer&lt;/font&gt;&lt;/div&gt;&lt;div align=&quot;left&quot;&gt;&lt;font&gt;&lt;br&gt;&lt;/font&gt;&lt;/div&gt;&lt;div align=&quot;left&quot;&gt;&lt;font&gt;Vorbedingung:&lt;/font&gt;&lt;/div&gt;&lt;div align=&quot;left&quot;&gt;&lt;ul&gt;&lt;li&gt;&lt;font&gt;Registrierter Unternehmer hat sich im System eingeloggt (Use Case: Login eines&lt;br&gt;registrierten Benutzers).&lt;/font&gt;&lt;/li&gt;&lt;li&gt;&lt;font&gt;Unternehmer hat Button zur Einstellung einer Projektausschreibung betätigt, das&lt;br&gt;System zeigt Formular dafür an.&lt;/font&gt;&lt;/li&gt;&lt;/ul&gt;&lt;/div&gt;&lt;div align=&quot;left&quot;&gt;&lt;font&gt;Regulärer Ereignisfluss:&lt;br&gt;&lt;/font&gt;&lt;/div&gt;&lt;div align=&quot;left&quot;&gt;&lt;ol&gt;&lt;li&gt;&lt;font&gt;Der Unternehmer bestimmt die Art der Projektausschreibung, es gibt die&lt;br&gt;folgenden Arten: „Festanstellung“ oder „Selbständiger“. Danach gelangt er durch&lt;br&gt;einen Button auf die nächste Eingabeseite, die vom System angezeigt wird.&lt;br&gt;&lt;br&gt;&lt;/font&gt;&lt;/li&gt;&lt;li&gt;&lt;font&gt;Der Unternehmer erstellt eine Beschreibung innerhalb der Eingabeseite. Dann&lt;br&gt;gelangt er mit einem Button auf die nächste Eingabeseite. Er hat die Möglichkeit,&lt;br&gt;von dort zurückzunavigieren, um die Beschreibung noch einmal anzupassen&lt;br&gt;(Rücksprung Schritt 2).&lt;br&gt;&lt;br&gt;&lt;/font&gt;&lt;/li&gt;&lt;li&gt;&lt;font&gt;Der Unternehmer erhält eine Übersicht aller eingegebenen Daten. Er kann diese&lt;br&gt;Daten in der Übersicht noch korrigieren, wenn ihm Fehler auffallen. Stimmen die&lt;br&gt;Daten, kann er den Auftrag zur Einstellung mit einem Button an das System&lt;br&gt;abschicken.&lt;br&gt;&lt;br&gt;&lt;/font&gt;&lt;/li&gt;&lt;li&gt;&lt;font&gt; Das System erhält den Einstellauftrag des Unternehmers und verifiziert die&lt;br&gt;Gültigkeit der Daten.&lt;br&gt;&lt;br&gt;&lt;/font&gt;&lt;/li&gt;&lt;li&gt;&lt;font&gt;Das System erstellt eine Projektausschreibung und speichert diese in einer&lt;br&gt;externen Datenbank eines Cloud-Speichers.&lt;br&gt;&lt;br&gt;&lt;/font&gt;&lt;/li&gt;&lt;li&gt;&lt;font&gt;Das System ermittelt die Bankdaten des Unternehmers und speichert diese via&lt;br&gt;des Use Case „Bankdaten ermitteln“ vorübergehend zur weiteren Verwendung.&lt;br&gt;&lt;br&gt;&lt;/font&gt;&lt;/li&gt;&lt;li&gt;&lt;font&gt;Das System ermittelt die Kosten für die Einstellung der Projektausschreibung und&lt;br&gt;bucht vom Konto des Unternehmens via Use Case „Bankeinzug durchführen“ den&lt;br&gt;Betrag ab. Das System speichert die Zuordnung der neuen Projektausschreibung&lt;br&gt;zum Unternehmer.&lt;br&gt;&lt;br&gt;&lt;/font&gt;&lt;/li&gt;&lt;li&gt;&lt;font&gt;Das System sendet an den Unternehmer eine Bestätigung in Form einer neuen&lt;br&gt;Bestätigungsseite, dass die Projektausschreibung eingestellt wurde und die&lt;br&gt;Kosten abgebucht wurden.&lt;/font&gt;&lt;/li&gt;&lt;/ol&gt;&lt;div&gt;&lt;font&gt;Alternativer Ereignisfluss Nr. 1:&lt;br&gt;Variante &quot;fehlerhafte Eingabe&quot; falls in Schritt 4 die Verifizierung fehlschlägt&lt;/font&gt;&lt;/div&gt;&lt;div&gt;&lt;ol&gt;&lt;li&gt;&lt;font&gt;Der Unternehmer erhält eine Übersicht der fehlerhaften Daten und wird aufgefordert,&lt;br&gt;die Daten zu korrigieren.&amp;nbsp;&lt;/font&gt;&lt;/li&gt;&lt;li&gt;&lt;font&gt;Der Unternehmer bestätigt die Daten mit einem Button.&lt;/font&gt;&lt;/li&gt;&lt;li&gt;&lt;font&gt;Gehe zu Schritt 4&lt;/font&gt;&lt;/li&gt;&lt;/ol&gt;&lt;/div&gt;&lt;div&gt;&lt;font&gt;&lt;br&gt;&lt;/font&gt;&lt;/div&gt;&lt;div&gt;&lt;font&gt;Alternativer Ereignisfluss Nr. 2:&lt;br&gt;Variante &quot;Bankeinzug Fehler&quot; falls in Schritt 7&amp;nbsp;der Bankeinzug&amp;nbsp;fehlschlägt.&lt;/font&gt;&lt;/div&gt;&lt;div&gt;&lt;ol&gt;&lt;li&gt;&lt;font&gt;Der Unternehmer wird aufgefordert, seine ausgewählten Bankdaten zu korrigieren.&lt;/font&gt;&lt;/li&gt;&lt;li&gt;&lt;font&gt;Der Unternehmer bestätigt die Daten mit einem Button.&lt;/font&gt;&lt;/li&gt;&lt;li&gt;&lt;font&gt;Das System versucht, die ermittelten Kosten via Use Case &quot;Bankeinzug durchführen&quot;&lt;br&gt;abzubuchen.&lt;br&gt;&lt;span style=&quot;white-space: pre;&quot;&gt;&#x9;&lt;/span&gt;- Bei Erfolg, gehe zu Schritt 8&lt;br&gt;&lt;span style=&quot;white-space: pre;&quot;&gt;&#x9;&lt;/span&gt;- Bei Miserfolg, wiederhole Alternativen Ereignisfluss &quot;Bankeinzug Fehler&quot;&lt;/font&gt;&lt;/li&gt;&lt;/ol&gt;&lt;/div&gt;&lt;div&gt;&lt;font&gt;&lt;br&gt;&lt;/font&gt;&lt;/div&gt;&lt;div&gt;&lt;font&gt;Nachbedingung:&lt;br&gt;&lt;/font&gt;&lt;/div&gt;&lt;/div&gt;&lt;div align=&quot;left&quot;&gt;&lt;font&gt;Eine Projektausschreibung mit zugehörigem Unternehmer, Kosten und verwendeter&lt;br&gt;Bankverbindung wurde eingestellt und im System abgespeichert. Dem Unternehmer wird eine&amp;nbsp;&lt;br&gt;Bestätigungsseite angezeigt.&lt;/font&gt;&lt;/div&gt;" style="text;html=1;align=left;verticalAlign=middle;resizable=0;points=[];autosize=1;strokeColor=default;fillColor=none;" parent="1" vertex="1">
          <mxGeometry x="-840" y="-1100" width="530" height="1020" as="geometry" />
        </mxCell>
        <mxCell id="1ledMZv2JU0vycFWsOgZ-1" value="&lt;div align=&quot;left&quot;&gt;Use Case: Bankdaten ermitteln&lt;/div&gt;&lt;div align=&quot;left&quot;&gt;&lt;br&gt;&lt;/div&gt;&lt;div align=&quot;left&quot;&gt;System: NullPointer Collaboration Portal&lt;br&gt;&lt;/div&gt;&lt;div align=&quot;left&quot;&gt;&lt;br&gt;&lt;/div&gt;&lt;div align=&quot;left&quot;&gt;Akteure: Unternehmer&lt;/div&gt;&lt;div align=&quot;left&quot;&gt;&lt;br&gt;&lt;/div&gt;&lt;div align=&quot;left&quot;&gt;Vorbedingung:&lt;/div&gt;&lt;div align=&quot;left&quot;&gt;&lt;ul&gt;&lt;li&gt;Registrierter Unternehmer hat sich im System eingeloggt (Use Case: Login eines&lt;br&gt;registrierten Benutzers).&lt;/li&gt;&lt;/ul&gt;&lt;/div&gt;&lt;div align=&quot;left&quot;&gt;Regulärer Ereignisfluss:&lt;br&gt;&lt;/div&gt;&lt;div align=&quot;left&quot;&gt;&lt;ol&gt;&lt;li&gt;Das System überprüft, ob für den Unternehmer bereits Bankdaten existieren.&lt;ul&gt;&lt;li&gt;falls ja, werden alle verfügbaren Bankdaten dem Unternehmer angezeigt&lt;br&gt;und er kann auswählen, welche Daten verwendet werden sollen.&lt;/li&gt;&lt;li&gt;falls nein wird der Unternehmer aufgefordert, eine Bankverbindung anzugeben.&lt;br&gt;Sobald er die Eingabe bestätigt, werden die neuen Bankdaten im System&lt;br&gt;gespeichert.&lt;/li&gt;&lt;/ul&gt;&lt;/li&gt;&lt;li&gt;Die ausgewählten Bankdaten werden zurückgegeben.&lt;/li&gt;&lt;/ol&gt;&lt;div&gt;Nachbedingung:&lt;br&gt;&lt;/div&gt;&lt;/div&gt;&lt;div align=&quot;left&quot;&gt;Dem System steht eine Bankverbindung des registrierten Unternehmers zur Verfügung.&lt;/div&gt;" style="text;html=1;align=left;verticalAlign=middle;resizable=0;points=[];autosize=1;strokeColor=default;fillColor=none;" parent="1" vertex="1">
          <mxGeometry x="-280" y="-1100" width="520" height="340" as="geometry" />
        </mxCell>
        <mxCell id="1ledMZv2JU0vycFWsOgZ-2" value="&lt;div align=&quot;left&quot;&gt;Use Case: Bankeinzug durchführen&lt;/div&gt;&lt;div align=&quot;left&quot;&gt;&lt;br&gt;&lt;/div&gt;&lt;div align=&quot;left&quot;&gt;System: NullPointer Collaboration Portal&lt;br&gt;&lt;/div&gt;&lt;div align=&quot;left&quot;&gt;&lt;br&gt;&lt;/div&gt;&lt;div align=&quot;left&quot;&gt;Akteure: Banking-Software&lt;/div&gt;&lt;div align=&quot;left&quot;&gt;&lt;br&gt;&lt;/div&gt;&lt;div align=&quot;left&quot;&gt;Vorbedingung:&lt;/div&gt;&lt;div align=&quot;left&quot;&gt;&lt;ul&gt;&lt;li&gt;Bankdaten und der gewünschte Betrag stehen zur Verfügung&lt;/li&gt;&lt;/ul&gt;&lt;/div&gt;&lt;div align=&quot;left&quot;&gt;Regulärer Ereignisfluss:&lt;br&gt;&lt;/div&gt;&lt;div align=&quot;left&quot;&gt;&lt;ol&gt;&lt;li&gt;Das System beauftragt den gegebenen Einzug bei der Banking-Software Schnittstelle.&lt;/li&gt;&lt;li&gt;Das System erhält positives oder negatives feedback der Schnittstelle.&lt;/li&gt;&lt;/ol&gt;&lt;div&gt;Nachbedingung:&lt;br&gt;&lt;/div&gt;&lt;/div&gt;&lt;div align=&quot;left&quot;&gt;Dem System liegt vor, ob der Einzug erfolgreich war oder nicht.&lt;/div&gt;" style="text;html=1;align=left;verticalAlign=middle;resizable=0;points=[];autosize=1;strokeColor=default;fillColor=none;" parent="1" vertex="1">
          <mxGeometry x="-280" y="-740" width="520" height="250" as="geometry" />
        </mxCell>
        <mxCell id="1ledMZv2JU0vycFWsOgZ-4" value="&lt;div&gt;Benutzer&lt;/div&gt;&lt;div&gt;registrieren&lt;/div&gt;" style="ellipse;whiteSpace=wrap;html=1;" parent="1" vertex="1">
          <mxGeometry x="-40" y="-410" width="120" height="60" as="geometry" />
        </mxCell>
        <mxCell id="1ledMZv2JU0vycFWsOgZ-5" value="&lt;div&gt;Unternehmer&lt;/div&gt;&lt;div&gt;registrieren&lt;/div&gt;" style="ellipse;whiteSpace=wrap;html=1;" parent="1" vertex="1">
          <mxGeometry x="-30" y="-290" width="120" height="60" as="geometry" />
        </mxCell>
        <mxCell id="1ledMZv2JU0vycFWsOgZ-7" value="&lt;div&gt;Bankdaten&lt;/div&gt;&lt;div&gt;ermitteln&lt;/div&gt;" style="ellipse;whiteSpace=wrap;html=1;" parent="1" vertex="1">
          <mxGeometry x="-60" y="-220" width="120" height="60" as="geometry" />
        </mxCell>
        <mxCell id="1ledMZv2JU0vycFWsOgZ-13" style="edgeStyle=orthogonalEdgeStyle;rounded=0;orthogonalLoop=1;jettySize=auto;html=1;endArrow=block;endFill=0;strokeWidth=1;" parent="1" edge="1">
          <mxGeometry relative="1" as="geometry">
            <mxPoint x="-265" y="-200" as="sourcePoint" />
            <mxPoint x="-265" y="-250" as="targetPoint" />
          </mxGeometry>
        </mxCell>
        <mxCell id="1ledMZv2JU0vycFWsOgZ-8" value="Unternehmer" style="shape=umlActor;verticalLabelPosition=bottom;verticalAlign=top;html=1;outlineConnect=0;" parent="1" vertex="1">
          <mxGeometry x="-280" y="-190" width="30" height="60" as="geometry" />
        </mxCell>
        <mxCell id="1ledMZv2JU0vycFWsOgZ-11" value="Benutzer" style="shape=umlActor;verticalLabelPosition=bottom;verticalAlign=top;html=1;outlineConnect=0;" parent="1" vertex="1">
          <mxGeometry x="-280" y="-340" width="30" height="60" as="geometry" />
        </mxCell>
        <mxCell id="1ledMZv2JU0vycFWsOgZ-14" value="&lt;div&gt;Bankeinzug&lt;/div&gt;&lt;div&gt;durchführen&lt;/div&gt;" style="ellipse;whiteSpace=wrap;html=1;" parent="1" vertex="1">
          <mxGeometry x="70" y="-170" width="120" height="60" as="geometry" />
        </mxCell>
        <mxCell id="1ledMZv2JU0vycFWsOgZ-17" value="&lt;div&gt;Projektausschreibung&lt;/div&gt;&lt;div&gt;einstellen&lt;/div&gt;" style="ellipse;whiteSpace=wrap;html=1;" parent="1" vertex="1">
          <mxGeometry x="-160" y="-110" width="140" height="60" as="geometry" />
        </mxCell>
        <mxCell id="1ledMZv2JU0vycFWsOgZ-18" value="Banking-Software" style="rounded=0;whiteSpace=wrap;html=1;" parent="1" vertex="1">
          <mxGeometry x="240" y="-250" width="120" height="50" as="geometry" />
        </mxCell>
        <mxCell id="1ledMZv2JU0vycFWsOgZ-19" value="" style="endArrow=block;html=1;rounded=0;entryX=0.038;entryY=0.684;entryDx=0;entryDy=0;exitX=0.943;exitY=0.297;exitDx=0;exitDy=0;endFill=0;dashed=1;exitPerimeter=0;entryPerimeter=0;" parent="1" source="1ledMZv2JU0vycFWsOgZ-17" target="1ledMZv2JU0vycFWsOgZ-14" edge="1">
          <mxGeometry width="50" height="50" relative="1" as="geometry">
            <mxPoint x="30" y="-330" as="sourcePoint" />
            <mxPoint x="80" y="-380" as="targetPoint" />
          </mxGeometry>
        </mxCell>
        <mxCell id="1ledMZv2JU0vycFWsOgZ-26" value="&amp;lt;&amp;lt;include&amp;gt;&amp;gt;" style="edgeLabel;html=1;align=center;verticalAlign=middle;resizable=0;points=[];" parent="1ledMZv2JU0vycFWsOgZ-19" vertex="1" connectable="0">
          <mxGeometry x="-0.3036" y="-1" relative="1" as="geometry">
            <mxPoint as="offset" />
          </mxGeometry>
        </mxCell>
        <mxCell id="1ledMZv2JU0vycFWsOgZ-20" value="" style="endArrow=block;html=1;rounded=0;entryX=0.303;entryY=0.992;entryDx=0;entryDy=0;exitX=0.664;exitY=0.09;exitDx=0;exitDy=0;endFill=0;dashed=1;exitPerimeter=0;entryPerimeter=0;" parent="1" source="1ledMZv2JU0vycFWsOgZ-17" target="1ledMZv2JU0vycFWsOgZ-7" edge="1">
          <mxGeometry width="50" height="50" relative="1" as="geometry">
            <mxPoint x="-18" y="-82" as="sourcePoint" />
            <mxPoint x="85" y="-119" as="targetPoint" />
          </mxGeometry>
        </mxCell>
        <mxCell id="1ledMZv2JU0vycFWsOgZ-27" value="&amp;lt;&amp;lt;include&amp;gt;&amp;gt;" style="edgeLabel;html=1;align=center;verticalAlign=middle;resizable=0;points=[];" parent="1ledMZv2JU0vycFWsOgZ-20" vertex="1" connectable="0">
          <mxGeometry x="-0.1092" y="4" relative="1" as="geometry">
            <mxPoint as="offset" />
          </mxGeometry>
        </mxCell>
        <mxCell id="1ledMZv2JU0vycFWsOgZ-21" value="" style="endArrow=none;html=1;rounded=0;entryX=0.25;entryY=1;entryDx=0;entryDy=0;exitX=1;exitY=0;exitDx=0;exitDy=0;" parent="1" source="1ledMZv2JU0vycFWsOgZ-14" target="1ledMZv2JU0vycFWsOgZ-18" edge="1">
          <mxGeometry width="50" height="50" relative="1" as="geometry">
            <mxPoint x="-300" y="-500" as="sourcePoint" />
            <mxPoint x="-250" y="-550" as="targetPoint" />
          </mxGeometry>
        </mxCell>
        <mxCell id="1ledMZv2JU0vycFWsOgZ-22" value="" style="endArrow=none;html=1;rounded=0;entryX=0.061;entryY=0.691;entryDx=0;entryDy=0;entryPerimeter=0;" parent="1" target="1ledMZv2JU0vycFWsOgZ-4" edge="1">
          <mxGeometry width="50" height="50" relative="1" as="geometry">
            <mxPoint x="-240" y="-310" as="sourcePoint" />
            <mxPoint x="-280" y="-430" as="targetPoint" />
          </mxGeometry>
        </mxCell>
        <mxCell id="1ledMZv2JU0vycFWsOgZ-23" value="" style="endArrow=none;html=1;rounded=0;entryX=0.065;entryY=0.745;entryDx=0;entryDy=0;entryPerimeter=0;" parent="1" target="1ledMZv2JU0vycFWsOgZ-5" edge="1">
          <mxGeometry width="50" height="50" relative="1" as="geometry">
            <mxPoint x="-240" y="-190" as="sourcePoint" />
            <mxPoint x="-330" y="-190" as="targetPoint" />
          </mxGeometry>
        </mxCell>
        <mxCell id="1ledMZv2JU0vycFWsOgZ-25" value="" style="endArrow=none;html=1;rounded=0;" parent="1" edge="1">
          <mxGeometry width="50" height="50" relative="1" as="geometry">
            <mxPoint x="-149" y="-94" as="sourcePoint" />
            <mxPoint x="-220" y="-120" as="targetPoint" />
          </mxGeometry>
        </mxCell>
        <mxCell id="1ledMZv2JU0vycFWsOgZ-28" value="&lt;div&gt;Login eines&lt;/div&gt;&lt;div&gt;registrierten&lt;/div&gt;&lt;div&gt;Benutzers&lt;/div&gt;" style="ellipse;whiteSpace=wrap;html=1;" parent="1" vertex="1">
          <mxGeometry x="-160" y="-330" width="120" height="60" as="geometry" />
        </mxCell>
        <mxCell id="1ledMZv2JU0vycFWsOgZ-31" value="" style="endArrow=block;html=1;rounded=0;entryX=0.293;entryY=0.929;entryDx=0;entryDy=0;entryPerimeter=0;exitX=0.239;exitY=0.132;exitDx=0;exitDy=0;exitPerimeter=0;endFill=0;" parent="1" source="1ledMZv2JU0vycFWsOgZ-5" target="1ledMZv2JU0vycFWsOgZ-4" edge="1">
          <mxGeometry width="50" height="50" relative="1" as="geometry">
            <mxPoint x="-370" y="-460.3" as="sourcePoint" />
            <mxPoint x="-117.51999999999998" y="-340.00000000000006" as="targetPoint" />
          </mxGeometry>
        </mxCell>
        <mxCell id="1ledMZv2JU0vycFWsOgZ-32" value="" style="endArrow=none;html=1;rounded=0;entryX=0;entryY=0.5;entryDx=0;entryDy=0;" parent="1" target="1ledMZv2JU0vycFWsOgZ-28" edge="1">
          <mxGeometry width="50" height="50" relative="1" as="geometry">
            <mxPoint x="-230" y="-300" as="sourcePoint" />
            <mxPoint x="-133" y="-359" as="targetPoint" />
          </mxGeometry>
        </mxCell>
        <mxCell id="aIbNtpPtUHnk6105fY0x-10" value="&lt;h1 style=&quot;margin-top: 0px;&quot;&gt;Aufgabe 2&lt;/h1&gt;" style="text;html=1;whiteSpace=wrap;overflow=hidden;rounded=0;" parent="1" vertex="1">
          <mxGeometry x="-830" width="180" height="40" as="geometry" />
        </mxCell>
        <mxCell id="sM1hCcH6YVYEcKg8HmV9-22" value="liefertAnfrage" style="edgeStyle=orthogonalEdgeStyle;rounded=0;orthogonalLoop=1;jettySize=auto;html=1;exitX=0.5;exitY=0;exitDx=0;exitDy=0;entryX=1;entryY=0.5;entryDx=0;entryDy=0;dashed=1;" edge="1" parent="1" source="aIbNtpPtUHnk6105fY0x-15" target="sM1hCcH6YVYEcKg8HmV9-18">
          <mxGeometry relative="1" as="geometry" />
        </mxCell>
        <mxCell id="sM1hCcH6YVYEcKg8HmV9-23" value="erstellt" style="rounded=0;orthogonalLoop=1;jettySize=auto;html=1;exitX=1;exitY=1;exitDx=0;exitDy=0;entryX=0.5;entryY=0;entryDx=0;entryDy=0;dashed=1;" edge="1" parent="1" source="sM1hCcH6YVYEcKg8HmV9-25" target="sM1hCcH6YVYEcKg8HmV9-7">
          <mxGeometry relative="1" as="geometry" />
        </mxCell>
        <mxCell id="aIbNtpPtUHnk6105fY0x-15" value="&lt;font style=&quot;font-size: 14px;&quot;&gt;&amp;lt;&amp;lt;control&amp;gt;&amp;gt;&lt;/font&gt;&lt;div&gt;&lt;span id=&quot;docs-internal-guid-68c259ae-7fff-7296-1fb7-0f01232bbbdc&quot;&gt;&lt;span style=&quot;font-family: Arial, sans-serif; background-color: transparent; font-variant-numeric: normal; font-variant-east-asian: normal; font-variant-alternates: normal; font-variant-position: normal; font-variant-emoji: normal; vertical-align: baseline; white-space-collapse: preserve;&quot;&gt;&lt;font style=&quot;font-size: 14px;&quot;&gt;&lt;b&gt;Projektausschreibung einstellen&lt;/b&gt;&lt;/font&gt;&lt;/span&gt;&lt;/span&gt;&lt;/div&gt;" style="swimlane;fontStyle=0;childLayout=stackLayout;horizontal=1;startSize=40;fillColor=none;horizontalStack=0;resizeParent=1;resizeParentMax=0;resizeLast=0;collapsible=1;marginBottom=0;whiteSpace=wrap;html=1;" parent="1" vertex="1">
          <mxGeometry x="-525" y="270" width="290" height="180" as="geometry" />
        </mxCell>
        <mxCell id="sM1hCcH6YVYEcKg8HmV9-25" value="&lt;div&gt;&lt;b&gt;+ speichereInCloud(Daten): void&lt;br&gt;+ getBankdaten(): Daten&lt;br&gt;+ kalkuliereKosten(PA): num&lt;/b&gt;&lt;/div&gt;&lt;div&gt;&lt;b&gt;+ einzugBank(num): void&lt;/b&gt;&lt;/div&gt;&lt;div&gt;&lt;b&gt;+ sendeBestätigung():void&lt;/b&gt;&lt;/div&gt;&lt;div&gt;&lt;b&gt;&lt;br&gt;&lt;/b&gt;&lt;/div&gt;" style="text;whiteSpace=wrap;html=1;" vertex="1" parent="aIbNtpPtUHnk6105fY0x-15">
          <mxGeometry y="40" width="290" height="140" as="geometry" />
        </mxCell>
        <mxCell id="sM1hCcH6YVYEcKg8HmV9-3" value="Unternehmer" style="shape=umlActor;verticalLabelPosition=bottom;verticalAlign=top;html=1;outlineConnect=0;" vertex="1" parent="1">
          <mxGeometry x="-810" y="90" width="30" height="60" as="geometry" />
        </mxCell>
        <mxCell id="sM1hCcH6YVYEcKg8HmV9-7" value="&lt;font style=&quot;font-size: 14px;&quot;&gt;&amp;lt;&amp;lt;entity&amp;gt;&amp;gt;&lt;/font&gt;&lt;div&gt;&lt;span id=&quot;docs-internal-guid-68c259ae-7fff-7296-1fb7-0f01232bbbdc&quot;&gt;&lt;span style=&quot;font-family: Arial, sans-serif; background-color: transparent; font-variant-numeric: normal; font-variant-east-asian: normal; font-variant-alternates: normal; font-variant-position: normal; font-variant-emoji: normal; vertical-align: baseline; white-space-collapse: preserve;&quot;&gt;&lt;font style=&quot;font-size: 14px;&quot;&gt;&lt;b&gt;Projektausschreibung&lt;/b&gt;&lt;/font&gt;&lt;/span&gt;&lt;/span&gt;&lt;/div&gt;" style="swimlane;fontStyle=0;childLayout=stackLayout;horizontal=1;startSize=40;fillColor=none;horizontalStack=0;resizeParent=1;resizeParentMax=0;resizeLast=0;collapsible=1;marginBottom=0;whiteSpace=wrap;html=1;" vertex="1" parent="1">
          <mxGeometry x="-180" y="530" width="200" height="120" as="geometry" />
        </mxCell>
        <mxCell id="sM1hCcH6YVYEcKg8HmV9-8" value="&lt;div&gt;&lt;b&gt;+ Name&lt;/b&gt;&lt;/div&gt;&lt;div&gt;&lt;b&gt;+ Beschreibung&lt;/b&gt;&lt;/div&gt;&lt;div&gt;&lt;b&gt;+ Ersteller&lt;/b&gt;&lt;/div&gt;&lt;div&gt;&lt;br&gt;&lt;/div&gt;&lt;div&gt;&lt;b&gt;&lt;br&gt;&lt;/b&gt;&lt;/div&gt;&lt;div&gt;&lt;b&gt;&lt;br&gt;&lt;/b&gt;&lt;/div&gt;&lt;div&gt;&lt;b&gt;&lt;br&gt;&lt;/b&gt;&lt;/div&gt;&lt;div&gt;&lt;b&gt;&lt;br&gt;&lt;/b&gt;&lt;/div&gt;&lt;div&gt;&lt;b&gt;&lt;br&gt;&lt;/b&gt;&lt;/div&gt;" style="text;strokeColor=none;fillColor=none;align=left;verticalAlign=top;spacingLeft=4;spacingRight=4;overflow=hidden;rotatable=0;points=[[0,0.5],[1,0.5]];portConstraint=eastwest;whiteSpace=wrap;html=1;" vertex="1" parent="sM1hCcH6YVYEcKg8HmV9-7">
          <mxGeometry y="40" width="200" height="80" as="geometry" />
        </mxCell>
        <mxCell id="sM1hCcH6YVYEcKg8HmV9-9" value="" style="triangle;whiteSpace=wrap;html=1;rotation=-90;" vertex="1" parent="1">
          <mxGeometry x="-100" y="640" width="40" height="50" as="geometry" />
        </mxCell>
        <mxCell id="sM1hCcH6YVYEcKg8HmV9-12" value="&lt;font style=&quot;font-size: 14px;&quot;&gt;&amp;lt;&amp;lt;entity&amp;gt;&amp;gt;&lt;/font&gt;&lt;div&gt;&lt;b&gt;Festanstellung&lt;br&gt;&lt;/b&gt;&lt;b&gt;Projektausschreibung&lt;/b&gt;&lt;/div&gt;" style="swimlane;fontStyle=0;childLayout=stackLayout;horizontal=1;startSize=60;fillColor=none;horizontalStack=0;resizeParent=1;resizeParentMax=0;resizeLast=0;collapsible=1;marginBottom=0;whiteSpace=wrap;html=1;" vertex="1" parent="1">
          <mxGeometry x="-70" y="730" width="170" height="80" as="geometry" />
        </mxCell>
        <mxCell id="sM1hCcH6YVYEcKg8HmV9-14" value="&lt;font style=&quot;font-size: 14px;&quot;&gt;&amp;lt;&amp;lt;entity&amp;gt;&amp;gt;&lt;/font&gt;&lt;div&gt;&lt;b&gt;Selbstständige Projektausschreibung&lt;/b&gt;&lt;/div&gt;" style="swimlane;fontStyle=0;childLayout=stackLayout;horizontal=1;startSize=60;fillColor=none;horizontalStack=0;resizeParent=1;resizeParentMax=0;resizeLast=0;collapsible=1;marginBottom=0;whiteSpace=wrap;html=1;" vertex="1" parent="1">
          <mxGeometry x="-260" y="730" width="170" height="80" as="geometry" />
        </mxCell>
        <mxCell id="sM1hCcH6YVYEcKg8HmV9-16" value="" style="endArrow=none;html=1;rounded=0;exitX=0;exitY=0.5;exitDx=0;exitDy=0;entryX=0.5;entryY=0;entryDx=0;entryDy=0;" edge="1" parent="1" source="sM1hCcH6YVYEcKg8HmV9-9" target="sM1hCcH6YVYEcKg8HmV9-12">
          <mxGeometry width="50" height="50" relative="1" as="geometry">
            <mxPoint x="50" y="630" as="sourcePoint" />
            <mxPoint x="100" y="580" as="targetPoint" />
          </mxGeometry>
        </mxCell>
        <mxCell id="sM1hCcH6YVYEcKg8HmV9-17" value="" style="endArrow=none;html=1;rounded=0;exitX=0;exitY=0.5;exitDx=0;exitDy=0;entryX=0.5;entryY=0;entryDx=0;entryDy=0;" edge="1" parent="1" source="sM1hCcH6YVYEcKg8HmV9-9" target="sM1hCcH6YVYEcKg8HmV9-14">
          <mxGeometry width="50" height="50" relative="1" as="geometry">
            <mxPoint x="-60" y="700" as="sourcePoint" />
            <mxPoint x="50" y="745" as="targetPoint" />
          </mxGeometry>
        </mxCell>
        <mxCell id="sM1hCcH6YVYEcKg8HmV9-18" value="&lt;font style=&quot;font-size: 14px;&quot;&gt;&amp;lt;&amp;lt;boundary&amp;gt;&amp;gt;&lt;/font&gt;&lt;div&gt;&lt;span id=&quot;docs-internal-guid-68c259ae-7fff-7296-1fb7-0f01232bbbdc&quot;&gt;&lt;span style=&quot;font-family: Arial, sans-serif; background-color: transparent; font-variant-numeric: normal; font-variant-east-asian: normal; font-variant-alternates: normal; font-variant-position: normal; font-variant-emoji: normal; vertical-align: baseline; white-space-collapse: preserve;&quot;&gt;&lt;font style=&quot;font-size: 14px;&quot;&gt;&lt;b&gt;Hauptseite&lt;/b&gt;&lt;/font&gt;&lt;/span&gt;&lt;/span&gt;&lt;/div&gt;" style="swimlane;fontStyle=0;childLayout=stackLayout;horizontal=1;startSize=40;fillColor=none;horizontalStack=0;resizeParent=1;resizeParentMax=0;resizeLast=0;collapsible=1;marginBottom=0;whiteSpace=wrap;html=1;" vertex="1" parent="1">
          <mxGeometry x="-740" y="70" width="200" height="80" as="geometry" />
        </mxCell>
        <mxCell id="sM1hCcH6YVYEcKg8HmV9-19" value="+getProjekte()&lt;br&gt;+setProjekte()" style="text;strokeColor=none;fillColor=none;align=left;verticalAlign=top;spacingLeft=4;spacingRight=4;overflow=hidden;rotatable=0;points=[[0,0.5],[1,0.5]];portConstraint=eastwest;whiteSpace=wrap;html=1;" vertex="1" parent="sM1hCcH6YVYEcKg8HmV9-18">
          <mxGeometry y="40" width="200" height="40" as="geometry" />
        </mxCell>
        <mxCell id="sM1hCcH6YVYEcKg8HmV9-20" value="" style="endArrow=none;html=1;rounded=0;entryX=1;entryY=0.3333333333333333;entryDx=0;entryDy=0;entryPerimeter=0;exitX=0;exitY=0.5;exitDx=0;exitDy=0;" edge="1" parent="1" source="sM1hCcH6YVYEcKg8HmV9-18" target="sM1hCcH6YVYEcKg8HmV9-3">
          <mxGeometry width="50" height="50" relative="1" as="geometry">
            <mxPoint x="-500" y="-40" as="sourcePoint" />
            <mxPoint x="-450" y="-90" as="targetPoint" />
          </mxGeometry>
        </mxCell>
        <mxCell id="sM1hCcH6YVYEcKg8HmV9-21" value="&lt;font style=&quot;font-size: 14px;&quot;&gt;&amp;lt;&amp;lt;DTO&amp;gt;&amp;gt;&lt;/font&gt;&lt;div&gt;&lt;b&gt;DatenBankeinzug&lt;/b&gt;&lt;/div&gt;" style="swimlane;fontStyle=0;childLayout=stackLayout;horizontal=1;startSize=40;fillColor=none;horizontalStack=0;resizeParent=1;resizeParentMax=0;resizeLast=0;collapsible=1;marginBottom=0;whiteSpace=wrap;html=1;" vertex="1" parent="1">
          <mxGeometry x="-800" y="500" width="150" height="110" as="geometry" />
        </mxCell>
        <mxCell id="sM1hCcH6YVYEcKg8HmV9-32" value="&lt;div&gt;+ IBAN&lt;/div&gt;&lt;div&gt;+ BIC&lt;/div&gt;&lt;div&gt;+ PA&lt;/div&gt;&lt;div&gt;+ Beschreibung&lt;/div&gt;" style="text;whiteSpace=wrap;html=1;" vertex="1" parent="sM1hCcH6YVYEcKg8HmV9-21">
          <mxGeometry y="40" width="150" height="70" as="geometry" />
        </mxCell>
        <mxCell id="sM1hCcH6YVYEcKg8HmV9-27" value="&lt;font style=&quot;font-size: 14px;&quot;&gt;&amp;lt;&amp;lt;entity&amp;gt;&amp;gt;&lt;/font&gt;&lt;div&gt;&lt;b&gt;Bankdaten&lt;/b&gt;&lt;/div&gt;" style="swimlane;fontStyle=0;childLayout=stackLayout;horizontal=1;startSize=40;fillColor=none;horizontalStack=0;resizeParent=1;resizeParentMax=0;resizeLast=0;collapsible=1;marginBottom=0;whiteSpace=wrap;html=1;" vertex="1" parent="1">
          <mxGeometry x="-140" y="110" width="200" height="80" as="geometry" />
        </mxCell>
        <mxCell id="sM1hCcH6YVYEcKg8HmV9-28" value="&lt;div&gt;+ IBAN&lt;/div&gt;&lt;div&gt;+ BIC&lt;/div&gt;&lt;div&gt;&lt;br&gt;&lt;/div&gt;" style="text;strokeColor=none;fillColor=none;align=left;verticalAlign=top;spacingLeft=4;spacingRight=4;overflow=hidden;rotatable=0;points=[[0,0.5],[1,0.5]];portConstraint=eastwest;whiteSpace=wrap;html=1;" vertex="1" parent="sM1hCcH6YVYEcKg8HmV9-27">
          <mxGeometry y="40" width="200" height="40" as="geometry" />
        </mxCell>
        <mxCell id="sM1hCcH6YVYEcKg8HmV9-31" value="interactBankdaten" style="rounded=0;orthogonalLoop=1;jettySize=auto;html=1;exitX=1;exitY=0;exitDx=0;exitDy=0;entryX=-0.005;entryY=0.975;entryDx=0;entryDy=0;dashed=1;entryPerimeter=0;" edge="1" parent="1" source="aIbNtpPtUHnk6105fY0x-15" target="sM1hCcH6YVYEcKg8HmV9-28">
          <mxGeometry relative="1" as="geometry">
            <mxPoint x="-220" y="330" as="sourcePoint" />
            <mxPoint x="-380" y="170" as="targetPoint" />
          </mxGeometry>
        </mxCell>
        <mxCell id="sM1hCcH6YVYEcKg8HmV9-33" value="setData" style="rounded=0;orthogonalLoop=1;jettySize=auto;html=1;exitX=0;exitY=1;exitDx=0;exitDy=0;entryX=1;entryY=0;entryDx=0;entryDy=0;dashed=1;" edge="1" parent="1" source="aIbNtpPtUHnk6105fY0x-15" target="sM1hCcH6YVYEcKg8HmV9-21">
          <mxGeometry relative="1" as="geometry">
            <mxPoint x="-210" y="321" as="sourcePoint" />
            <mxPoint x="-116" y="240" as="targetPoint" />
          </mxGeometry>
        </mxCell>
        <mxCell id="sM1hCcH6YVYEcKg8HmV9-35" value="&lt;font style=&quot;font-size: 14px;&quot;&gt;&amp;lt;&amp;lt;boundary&amp;gt;&amp;gt;&lt;/font&gt;&lt;div&gt;&lt;b&gt;Eingabe Projektauschreibung&lt;/b&gt;&lt;/div&gt;" style="swimlane;fontStyle=0;childLayout=stackLayout;horizontal=1;startSize=40;fillColor=none;horizontalStack=0;resizeParent=1;resizeParentMax=0;resizeLast=0;collapsible=1;marginBottom=0;whiteSpace=wrap;html=1;" vertex="1" parent="1">
          <mxGeometry x="-490" y="625" width="200" height="120" as="geometry" />
        </mxCell>
        <mxCell id="sM1hCcH6YVYEcKg8HmV9-36" value="+ erstelleBeschreibung()&lt;br&gt;+ bearbeiteBeschreibung()&lt;br&gt;+ getDatenZumAuslesen()" style="text;strokeColor=none;fillColor=none;align=left;verticalAlign=top;spacingLeft=4;spacingRight=4;overflow=hidden;rotatable=0;points=[[0,0.5],[1,0.5]];portConstraint=eastwest;whiteSpace=wrap;html=1;" vertex="1" parent="sM1hCcH6YVYEcKg8HmV9-35">
          <mxGeometry y="40" width="200" height="80" as="geometry" />
        </mxCell>
        <mxCell id="sM1hCcH6YVYEcKg8HmV9-37" value="Initiert" style="rounded=0;orthogonalLoop=1;jettySize=auto;html=1;exitX=0.5;exitY=1;exitDx=0;exitDy=0;entryX=0.5;entryY=0;entryDx=0;entryDy=0;dashed=1;" edge="1" parent="1" source="sM1hCcH6YVYEcKg8HmV9-25" target="sM1hCcH6YVYEcKg8HmV9-35">
          <mxGeometry relative="1" as="geometry">
            <mxPoint x="-475" y="460" as="sourcePoint" />
            <mxPoint x="-550" y="510" as="targetPoint" />
          </mxGeometry>
        </mxCell>
        <mxCell id="sM1hCcH6YVYEcKg8HmV9-38" value="getData" style="rounded=0;orthogonalLoop=1;jettySize=auto;html=1;exitX=0;exitY=0.5;exitDx=0;exitDy=0;dashed=1;entryX=1;entryY=1;entryDx=0;entryDy=0;" edge="1" parent="1" source="sM1hCcH6YVYEcKg8HmV9-36" target="sM1hCcH6YVYEcKg8HmV9-32">
          <mxGeometry relative="1" as="geometry">
            <mxPoint x="-380" y="570" as="sourcePoint" />
            <mxPoint x="-710" y="640" as="targetPoint" />
          </mxGeometry>
        </mxCell>
      </root>
    </mxGraphModel>
  </diagram>
</mxfile>
